<mxfile host="app.diagrams.net" agent="Mozilla/5.0 (Windows NT 10.0; Win64; x64) AppleWebKit/537.36 (KHTML, like Gecko) Chrome/136.0.0.0 Safari/537.36" version="27.0.5">
  <diagram name="Σελίδα-1" id="-uBB655W8wkgqMBdY3EB">
    <mxGraphModel dx="1611" dy="1102" grid="1" gridSize="10" guides="1" tooltips="1" connect="1" arrows="1" fold="1" page="1" pageScale="1" pageWidth="827" pageHeight="1169" math="0" shadow="0" adaptiveColors="none">
      <root>
        <mxCell id="0" />
        <mxCell id="1" parent="0" />
        <mxCell id="4pbVI-FxXsLDW_UVIZDS-1" value="" style="shape=umlLifeline;perimeter=lifelinePerimeter;whiteSpace=wrap;html=1;container=1;dropTarget=0;collapsible=0;recursiveResize=0;outlineConnect=0;portConstraint=eastwest;newEdgeStyle={&quot;curved&quot;:0,&quot;rounded&quot;:0};participant=umlActor;" vertex="1" parent="1">
          <mxGeometry x="110" y="40" width="20" height="440" as="geometry" />
        </mxCell>
        <mxCell id="4pbVI-FxXsLDW_UVIZDS-5" value="" style="html=1;points=[[0,0,0,0,5],[0,1,0,0,-5],[1,0,0,0,5],[1,1,0,0,-5]];perimeter=orthogonalPerimeter;outlineConnect=0;targetShapes=umlLifeline;portConstraint=eastwest;newEdgeStyle={&quot;curved&quot;:0,&quot;rounded&quot;:0};" vertex="1" parent="4pbVI-FxXsLDW_UVIZDS-1">
          <mxGeometry x="5" y="40" width="10" height="230" as="geometry" />
        </mxCell>
        <mxCell id="4pbVI-FxXsLDW_UVIZDS-2" value=":FavouriteSubjects" style="shape=umlLifeline;perimeter=lifelinePerimeter;whiteSpace=wrap;html=1;container=1;dropTarget=0;collapsible=0;recursiveResize=0;outlineConnect=0;portConstraint=eastwest;newEdgeStyle={&quot;curved&quot;:0,&quot;rounded&quot;:0};" vertex="1" parent="1">
          <mxGeometry x="210" y="40" width="100" height="440" as="geometry" />
        </mxCell>
        <mxCell id="4pbVI-FxXsLDW_UVIZDS-6" value="" style="html=1;points=[[0,0,0,0,5],[0,1,0,0,-5],[1,0,0,0,5],[1,1,0,0,-5]];perimeter=orthogonalPerimeter;outlineConnect=0;targetShapes=umlLifeline;portConstraint=eastwest;newEdgeStyle={&quot;curved&quot;:0,&quot;rounded&quot;:0};" vertex="1" parent="4pbVI-FxXsLDW_UVIZDS-2">
          <mxGeometry x="45" y="40" width="10" height="80" as="geometry" />
        </mxCell>
        <mxCell id="4pbVI-FxXsLDW_UVIZDS-16" value="" style="html=1;points=[[0,0,0,0,5],[0,1,0,0,-5],[1,0,0,0,5],[1,1,0,0,-5]];perimeter=orthogonalPerimeter;outlineConnect=0;targetShapes=umlLifeline;portConstraint=eastwest;newEdgeStyle={&quot;curved&quot;:0,&quot;rounded&quot;:0};" vertex="1" parent="4pbVI-FxXsLDW_UVIZDS-2">
          <mxGeometry x="45" y="215" width="10" height="30" as="geometry" />
        </mxCell>
        <mxCell id="4pbVI-FxXsLDW_UVIZDS-3" value=":ViewSubject" style="shape=umlLifeline;perimeter=lifelinePerimeter;whiteSpace=wrap;html=1;container=1;dropTarget=0;collapsible=0;recursiveResize=0;outlineConnect=0;portConstraint=eastwest;newEdgeStyle={&quot;curved&quot;:0,&quot;rounded&quot;:0};" vertex="1" parent="1">
          <mxGeometry x="350" y="40" width="100" height="440" as="geometry" />
        </mxCell>
        <mxCell id="4pbVI-FxXsLDW_UVIZDS-12" value="" style="html=1;points=[[0,0,0,0,5],[0,1,0,0,-5],[1,0,0,0,5],[1,1,0,0,-5]];perimeter=orthogonalPerimeter;outlineConnect=0;targetShapes=umlLifeline;portConstraint=eastwest;newEdgeStyle={&quot;curved&quot;:0,&quot;rounded&quot;:0};" vertex="1" parent="4pbVI-FxXsLDW_UVIZDS-3">
          <mxGeometry x="45" y="110" width="10" height="30" as="geometry" />
        </mxCell>
        <mxCell id="4pbVI-FxXsLDW_UVIZDS-4" value=":MainMenu" style="shape=umlLifeline;perimeter=lifelinePerimeter;whiteSpace=wrap;html=1;container=1;dropTarget=0;collapsible=0;recursiveResize=0;outlineConnect=0;portConstraint=eastwest;newEdgeStyle={&quot;curved&quot;:0,&quot;rounded&quot;:0};" vertex="1" parent="1">
          <mxGeometry x="470" y="40" width="100" height="440" as="geometry" />
        </mxCell>
        <mxCell id="4pbVI-FxXsLDW_UVIZDS-7" value="click on subject" style="html=1;verticalAlign=bottom;endArrow=block;curved=0;rounded=0;" edge="1" parent="1" target="4pbVI-FxXsLDW_UVIZDS-6">
          <mxGeometry width="80" relative="1" as="geometry">
            <mxPoint x="125" y="134.5" as="sourcePoint" />
            <mxPoint x="235" y="134.5" as="targetPoint" />
          </mxGeometry>
        </mxCell>
        <mxCell id="4pbVI-FxXsLDW_UVIZDS-8" value="display()" style="html=1;verticalAlign=bottom;endArrow=open;dashed=1;endSize=8;curved=0;rounded=0;" edge="1" parent="1" source="4pbVI-FxXsLDW_UVIZDS-6">
          <mxGeometry relative="1" as="geometry">
            <mxPoint x="235" y="110" as="sourcePoint" />
            <mxPoint x="125" y="110" as="targetPoint" />
          </mxGeometry>
        </mxCell>
        <mxCell id="4pbVI-FxXsLDW_UVIZDS-9" value="loop" style="shape=umlFrame;whiteSpace=wrap;html=1;pointerEvents=0;" vertex="1" parent="1">
          <mxGeometry x="-50" y="90" width="620" height="150" as="geometry" />
        </mxCell>
        <mxCell id="4pbVI-FxXsLDW_UVIZDS-10" value="[If user added to favourites]" style="text;html=1;align=center;verticalAlign=middle;resizable=0;points=[];autosize=1;strokeColor=none;fillColor=none;" vertex="1" parent="1">
          <mxGeometry x="-60" y="120" width="170" height="30" as="geometry" />
        </mxCell>
        <mxCell id="4pbVI-FxXsLDW_UVIZDS-11" value="redirect()" style="html=1;verticalAlign=bottom;endArrow=block;curved=0;rounded=0;exitX=1;exitY=1;exitDx=0;exitDy=-5;exitPerimeter=0;" edge="1" parent="1" source="4pbVI-FxXsLDW_UVIZDS-6" target="4pbVI-FxXsLDW_UVIZDS-12">
          <mxGeometry width="80" relative="1" as="geometry">
            <mxPoint x="250" y="150" as="sourcePoint" />
            <mxPoint x="330" y="150" as="targetPoint" />
          </mxGeometry>
        </mxCell>
        <mxCell id="4pbVI-FxXsLDW_UVIZDS-13" value="display()" style="html=1;verticalAlign=bottom;endArrow=open;dashed=1;endSize=8;curved=0;rounded=0;exitX=0;exitY=1;exitDx=0;exitDy=-5;exitPerimeter=0;" edge="1" parent="1" source="4pbVI-FxXsLDW_UVIZDS-12" target="4pbVI-FxXsLDW_UVIZDS-5">
          <mxGeometry x="-0.4444" relative="1" as="geometry">
            <mxPoint x="340" y="200" as="sourcePoint" />
            <mxPoint x="260" y="200" as="targetPoint" />
            <mxPoint as="offset" />
          </mxGeometry>
        </mxCell>
        <mxCell id="4pbVI-FxXsLDW_UVIZDS-14" value="alt" style="shape=umlFrame;whiteSpace=wrap;html=1;pointerEvents=0;" vertex="1" parent="1">
          <mxGeometry x="-50" y="250" width="620" height="65" as="geometry" />
        </mxCell>
        <mxCell id="4pbVI-FxXsLDW_UVIZDS-15" value="[User wants to return]" style="text;html=1;align=center;verticalAlign=middle;resizable=0;points=[];autosize=1;strokeColor=none;fillColor=none;" vertex="1" parent="1">
          <mxGeometry x="-50" y="280" width="140" height="30" as="geometry" />
        </mxCell>
        <mxCell id="4pbVI-FxXsLDW_UVIZDS-17" value="click(&quot;Επιστροφή&quot;)" style="html=1;verticalAlign=bottom;endArrow=block;curved=0;rounded=0;entryX=0.1;entryY=0.4;entryDx=0;entryDy=0;entryPerimeter=0;" edge="1" parent="1" target="4pbVI-FxXsLDW_UVIZDS-16">
          <mxGeometry width="80" relative="1" as="geometry">
            <mxPoint x="125" y="267" as="sourcePoint" />
            <mxPoint x="210" y="265" as="targetPoint" />
          </mxGeometry>
        </mxCell>
        <mxCell id="4pbVI-FxXsLDW_UVIZDS-18" value="" style="html=1;points=[[0,0,0,0,5],[0,1,0,0,-5],[1,0,0,0,5],[1,1,0,0,-5]];perimeter=orthogonalPerimeter;outlineConnect=0;targetShapes=umlLifeline;portConstraint=eastwest;newEdgeStyle={&quot;curved&quot;:0,&quot;rounded&quot;:0};" vertex="1" parent="1">
          <mxGeometry x="515" y="267.5" width="10" height="30" as="geometry" />
        </mxCell>
        <mxCell id="4pbVI-FxXsLDW_UVIZDS-19" value="redirect()" style="html=1;verticalAlign=bottom;endArrow=block;curved=0;rounded=0;entryX=0;entryY=0;entryDx=0;entryDy=5;entryPerimeter=0;" edge="1" parent="1" source="4pbVI-FxXsLDW_UVIZDS-16" target="4pbVI-FxXsLDW_UVIZDS-18">
          <mxGeometry width="80" relative="1" as="geometry">
            <mxPoint x="260" y="284" as="sourcePoint" />
            <mxPoint x="340" y="284" as="targetPoint" />
          </mxGeometry>
        </mxCell>
        <mxCell id="4pbVI-FxXsLDW_UVIZDS-20" value="display()" style="html=1;verticalAlign=bottom;endArrow=open;dashed=1;endSize=8;curved=0;rounded=0;exitX=0;exitY=1;exitDx=0;exitDy=-5;exitPerimeter=0;" edge="1" parent="1" source="4pbVI-FxXsLDW_UVIZDS-18">
          <mxGeometry relative="1" as="geometry">
            <mxPoint x="325" y="299.5" as="sourcePoint" />
            <mxPoint x="125" y="292.5" as="targetPoint" />
          </mxGeometry>
        </mxCell>
        <mxCell id="4pbVI-FxXsLDW_UVIZDS-21" value="" style="endArrow=none;dashed=1;html=1;rounded=0;exitX=0.003;exitY=0.673;exitDx=0;exitDy=0;exitPerimeter=0;entryX=1;entryY=0.68;entryDx=0;entryDy=0;entryPerimeter=0;" edge="1" parent="1" source="4pbVI-FxXsLDW_UVIZDS-9" target="4pbVI-FxXsLDW_UVIZDS-9">
          <mxGeometry width="50" height="50" relative="1" as="geometry">
            <mxPoint x="40" y="240" as="sourcePoint" />
            <mxPoint x="90" y="190" as="targetPoint" />
          </mxGeometry>
        </mxCell>
        <mxCell id="4pbVI-FxXsLDW_UVIZDS-22" value="[If user has no favourites]" style="text;html=1;align=center;verticalAlign=middle;resizable=0;points=[];autosize=1;strokeColor=none;fillColor=none;" vertex="1" parent="1">
          <mxGeometry x="-50" y="190" width="160" height="30" as="geometry" />
        </mxCell>
        <mxCell id="4pbVI-FxXsLDW_UVIZDS-23" value="" style="html=1;points=[[0,0,0,0,5],[0,1,0,0,-5],[1,0,0,0,5],[1,1,0,0,-5]];perimeter=orthogonalPerimeter;outlineConnect=0;targetShapes=umlLifeline;portConstraint=eastwest;newEdgeStyle={&quot;curved&quot;:0,&quot;rounded&quot;:0};" vertex="1" parent="1">
          <mxGeometry x="255" y="210" width="10" height="20" as="geometry" />
        </mxCell>
        <mxCell id="4pbVI-FxXsLDW_UVIZDS-24" value="display(&quot;Δεν υπάρχουν&lt;div&gt;μαθήματα&quot;)&lt;/div&gt;" style="html=1;verticalAlign=bottom;endArrow=open;dashed=1;endSize=8;curved=0;rounded=0;exitX=0;exitY=1;exitDx=0;exitDy=-5;exitPerimeter=0;" edge="1" parent="1" source="4pbVI-FxXsLDW_UVIZDS-23" target="4pbVI-FxXsLDW_UVIZDS-5">
          <mxGeometry relative="1" as="geometry">
            <mxPoint x="220" y="209.5" as="sourcePoint" />
            <mxPoint x="140" y="209.5" as="targetPoint" />
          </mxGeometry>
        </mxCell>
      </root>
    </mxGraphModel>
  </diagram>
</mxfile>
